<svg xmlns="http://www.w3.org/2000/svg" width="256" height="256" viewBox="0 0 64 64" shape-rendering="crispEdges">
<rect width="64" height="64" fill="#000000"/>
<rect x="47" y="22" width="1" height="1" fill="#FF0000"/>
<rect x="46" y="23" width="4" height="1" fill="#FF0000"/>
<rect x="44" y="24" width="7" height="1" fill="#FF0000"/>
<rect x="44" y="25" width="7" height="1" fill="#FF0000"/>
<rect x="20" y="26" width="4" height="1" fill="#FF0000"/>
<rect x="42" y="26" width="10" height="1" fill="#FF0000"/>
<rect x="19" y="27" width="8" height="1" fill="#FF0000"/>
<rect x="39" y="27" width="15" height="1" fill="#FF0000"/>
<rect x="18" y="28" width="12" height="1" fill="#FF0000"/>
<rect x="36" y="28" width="19" height="1" fill="#FF0000"/>
<rect x="18" y="29" width="12" height="1" fill="#FF0000"/>
<rect x="36" y="29" width="19" height="1" fill="#FF0000"/>
<rect x="16" y="30" width="39" height="1" fill="#FF0000"/>
<rect x="15" y="31" width="40" height="1" fill="#FF0000"/>
<rect x="14" y="32" width="42" height="1" fill="#FF0000"/>
<rect x="14" y="33" width="42" height="1" fill="#FF0000"/>
<rect x="14" y="34" width="4" height="1" fill="#FF0000"/>
<rect x="20" y="34" width="2" height="1" fill="#FF0000"/>
<rect x="24" y="34" width="22" height="1" fill="#FF0000"/>
<rect x="48" y="34" width="2" height="1" fill="#FF0000"/>
<rect x="52" y="34" width="4" height="1" fill="#FF0000"/>
<rect x="14" y="35" width="4" height="1" fill="#FF0000"/>
<rect x="26" y="35" width="18" height="1" fill="#FF0000"/>
<rect x="54" y="35" width="2" height="1" fill="#FF0000"/>
<rect x="14" y="36" width="4" height="1" fill="#FF0000"/>
<rect x="20" y="36" width="2" height="1" fill="#FF0000"/>
<rect x="24" y="36" width="22" height="1" fill="#FF0000"/>
<rect x="48" y="36" width="2" height="1" fill="#FF0000"/>
<rect x="52" y="36" width="4" height="1" fill="#FF0000"/>
<rect x="14" y="37" width="4" height="1" fill="#FF0000"/>
<rect x="20" y="37" width="2" height="1" fill="#FF0000"/>
<rect x="24" y="37" width="22" height="1" fill="#FF0000"/>
<rect x="48" y="37" width="2" height="1" fill="#FF0000"/>
<rect x="52" y="37" width="4" height="1" fill="#FF0000"/>
<rect x="14" y="38" width="42" height="1" fill="#FF0000"/>
<rect x="15" y="39" width="17" height="1" fill="#FF0000"/>
<rect x="34" y="39" width="21" height="1" fill="#FF0000"/>
<rect x="15" y="40" width="15" height="1" fill="#FF0000"/>
<rect x="38" y="40" width="17" height="1" fill="#FF0000"/>
<rect x="15" y="41" width="15" height="1" fill="#FF0000"/>
<rect x="38" y="41" width="17" height="1" fill="#FF0000"/>
<rect x="16" y="42" width="15" height="1" fill="#FF0000"/>
<rect x="36" y="42" width="18" height="1" fill="#FF0000"/>
<rect x="18" y="43" width="34" height="1" fill="#FF0000"/>
<rect x="19" y="44" width="32" height="1" fill="#FF0000"/>
<rect x="19" y="45" width="32" height="1" fill="#FF0000"/>
<rect x="20" y="46" width="30" height="1" fill="#FF0000"/>
<rect x="20" y="47" width="28" height="1" fill="#FF0000"/>
<rect x="19" y="48" width="31" height="1" fill="#FF0000"/>
<rect x="19" y="49" width="31" height="1" fill="#FF0000"/>
<rect x="18" y="50" width="33" height="1" fill="#FF0000"/>
<rect x="16" y="51" width="36" height="1" fill="#FF0000"/>
<rect x="15" y="52" width="39" height="1" fill="#FF0000"/>
<rect x="15" y="53" width="39" height="1" fill="#FF0000"/>
<rect x="15" y="54" width="39" height="1" fill="#FF0000"/>
<rect x="15" y="55" width="39" height="1" fill="#FF0000"/>
<rect x="15" y="56" width="37" height="1" fill="#FF0000"/>
<rect x="15" y="57" width="37" height="1" fill="#FF0000"/>
<rect x="16" y="58" width="35" height="1" fill="#FF0000"/>
<rect x="18" y="59" width="5" height="1" fill="#FF0000"/>
<rect x="32" y="59" width="7" height="1" fill="#FF0000"/>
<rect x="46" y="59" width="5" height="1" fill="#FF0000"/>
<rect x="18" y="60" width="5" height="1" fill="#FF0000"/>
<rect x="32" y="60" width="7" height="1" fill="#FF0000"/>
<rect x="46" y="60" width="5" height="1" fill="#FF0000"/>
<rect x="18" y="61" width="5" height="1" fill="#FF0000"/>
<rect x="32" y="61" width="7" height="1" fill="#FF0000"/>
<rect x="46" y="61" width="5" height="1" fill="#FF0000"/>
<rect x="19" y="62" width="4" height="1" fill="#FF0000"/>
<rect x="32" y="62" width="6" height="1" fill="#FF0000"/>
<rect x="47" y="62" width="4" height="1" fill="#FF0000"/>
</svg>