<svg xmlns="http://www.w3.org/2000/svg" width="256" height="256" viewBox="0 0 64 64" shape-rendering="crispEdges">
<rect width="64" height="64" fill="#000000"/>
<rect x="11" y="2" width="1" height="1" fill="#FFFF00"/>
<rect x="48" y="2" width="2" height="1" fill="#FFFF00"/>
<rect x="11" y="3" width="3" height="1" fill="#FFFF00"/>
<rect x="47" y="3" width="4" height="1" fill="#FFFF00"/>
<rect x="10" y="4" width="5" height="1" fill="#FFFF00"/>
<rect x="46" y="4" width="6" height="1" fill="#FFFF00"/>
<rect x="10" y="5" width="5" height="1" fill="#FFFF00"/>
<rect x="46" y="5" width="6" height="1" fill="#FFFF00"/>
<rect x="10" y="6" width="6" height="1" fill="#FFFF00"/>
<rect x="44" y="6" width="8" height="1" fill="#FFFF00"/>
<rect x="8" y="7" width="10" height="1" fill="#FFFF00"/>
<rect x="43" y="7" width="9" height="1" fill="#FFFF00"/>
<rect x="8" y="8" width="11" height="1" fill="#FFFF00"/>
<rect x="42" y="8" width="10" height="1" fill="#FFFF00"/>
<rect x="8" y="9" width="11" height="1" fill="#FFFF00"/>
<rect x="42" y="9" width="10" height="1" fill="#FFFF00"/>
<rect x="7" y="10" width="13" height="1" fill="#FFFF00"/>
<rect x="40" y="10" width="14" height="1" fill="#FFFF00"/>
<rect x="7" y="11" width="15" height="1" fill="#FFFF00"/>
<rect x="39" y="11" width="15" height="1" fill="#FFFF00"/>
<rect x="7" y="12" width="16" height="1" fill="#FFFF00"/>
<rect x="38" y="12" width="16" height="1" fill="#FFFF00"/>
<rect x="7" y="13" width="16" height="1" fill="#FFFF00"/>
<rect x="38" y="13" width="16" height="1" fill="#FFFF00"/>
<rect x="6" y="14" width="18" height="1" fill="#FFFF00"/>
<rect x="36" y="14" width="19" height="1" fill="#FFFF00"/>
<rect x="6" y="15" width="49" height="1" fill="#FFFF00"/>
<rect x="6" y="16" width="49" height="1" fill="#FFFF00"/>
<rect x="6" y="17" width="49" height="1" fill="#FFFF00"/>
<rect x="4" y="18" width="52" height="1" fill="#FFFF00"/>
<rect x="4" y="19" width="52" height="1" fill="#FFFF00"/>
<rect x="4" y="20" width="8" height="1" fill="#FFFF00"/>
<rect x="15" y="20" width="32" height="1" fill="#FFFF00"/>
<rect x="48" y="20" width="3" height="1" fill="#FFFF00"/>
<rect x="54" y="20" width="2" height="1" fill="#FFFF00"/>
<rect x="4" y="21" width="8" height="1" fill="#FFFF00"/>
<rect x="15" y="21" width="32" height="1" fill="#FFFF00"/>
<rect x="48" y="21" width="3" height="1" fill="#FFFF00"/>
<rect x="54" y="21" width="2" height="1" fill="#FFFF00"/>
<rect x="4" y="22" width="10" height="1" fill="#FFFF00"/>
<rect x="16" y="22" width="32" height="1" fill="#FFFF00"/>
<rect x="50" y="22" width="2" height="1" fill="#FFFF00"/>
<rect x="54" y="22" width="2" height="1" fill="#FFFF00"/>
<rect x="4" y="23" width="52" height="1" fill="#FFFF00"/>
<rect x="4" y="24" width="52" height="1" fill="#FFFF00"/>
<rect x="4" y="25" width="52" height="1" fill="#FFFF00"/>
<rect x="6" y="26" width="22" height="1" fill="#FFFF00"/>
<rect x="30" y="26" width="25" height="1" fill="#FFFF00"/>
<rect x="6" y="27" width="20" height="1" fill="#FFFF00"/>
<rect x="35" y="27" width="20" height="1" fill="#FFFF00"/>
<rect x="7" y="28" width="17" height="1" fill="#FFFF00"/>
<rect x="36" y="28" width="18" height="1" fill="#FFFF00"/>
<rect x="7" y="29" width="17" height="1" fill="#FFFF00"/>
<rect x="36" y="29" width="18" height="1" fill="#FFFF00"/>
<rect x="7" y="30" width="20" height="1" fill="#FFFF00"/>
<rect x="34" y="30" width="20" height="1" fill="#FFFF00"/>
<rect x="8" y="31" width="44" height="1" fill="#FFFF00"/>
<rect x="10" y="32" width="41" height="1" fill="#FFFF00"/>
<rect x="10" y="33" width="41" height="1" fill="#FFFF00"/>
<rect x="11" y="34" width="39" height="1" fill="#FFFF00"/>
<rect x="12" y="35" width="36" height="1" fill="#FFFF00"/>
<rect x="8" y="36" width="4" height="1" fill="#FFFF00"/>
<rect x="14" y="36" width="33" height="1" fill="#FFFF00"/>
<rect x="48" y="36" width="4" height="1" fill="#FFFF00"/>
<rect x="8" y="37" width="4" height="1" fill="#FFFF00"/>
<rect x="14" y="37" width="33" height="1" fill="#FFFF00"/>
<rect x="48" y="37" width="4" height="1" fill="#FFFF00"/>
<rect x="7" y="38" width="7" height="1" fill="#FFFF00"/>
<rect x="15" y="38" width="31" height="1" fill="#FFFF00"/>
<rect x="47" y="38" width="7" height="1" fill="#FFFF00"/>
<rect x="7" y="39" width="8" height="1" fill="#FFFF00"/>
<rect x="16" y="39" width="28" height="1" fill="#FFFF00"/>
<rect x="46" y="39" width="8" height="1" fill="#FFFF00"/>
<rect x="8" y="40" width="44" height="1" fill="#FFFF00"/>
<rect x="8" y="41" width="44" height="1" fill="#FFFF00"/>
<rect x="10" y="42" width="41" height="1" fill="#FFFF00"/>
<rect x="10" y="43" width="41" height="1" fill="#FFFF00"/>
<rect x="10" y="44" width="41" height="1" fill="#FFFF00"/>
<rect x="10" y="45" width="41" height="1" fill="#FFFF00"/>
<rect x="11" y="46" width="39" height="1" fill="#FFFF00"/>
<rect x="11" y="47" width="39" height="1" fill="#FFFF00"/>
<rect x="12" y="48" width="10" height="1" fill="#FFFF00"/>
<rect x="27" y="48" width="12" height="1" fill="#FFFF00"/>
<rect x="44" y="48" width="10" height="1" fill="#FFFF00"/>
<rect x="12" y="49" width="10" height="1" fill="#FFFF00"/>
<rect x="27" y="49" width="12" height="1" fill="#FFFF00"/>
<rect x="44" y="49" width="10" height="1" fill="#FFFF00"/>
<rect x="12" y="50" width="10" height="1" fill="#FFFF00"/>
<rect x="27" y="50" width="11" height="1" fill="#FFFF00"/>
<rect x="44" y="50" width="10" height="1" fill="#FFFF00"/>
<rect x="12" y="51" width="10" height="1" fill="#FFFF00"/>
<rect x="27" y="51" width="11" height="1" fill="#FFFF00"/>
<rect x="44" y="51" width="10" height="1" fill="#FFFF00"/>
</svg>